<svg width="263" height="266" viewBox="0 0 263 266" fill="none" xmlns="http://www.w3.org/2000/svg">
<path d="M131.559 49.2922V54.7006C131.559 57.8808 132.968 60.8897 135.415 62.9274L145.583 71.4017C149.791 74.9153 150.677 81.0187 147.639 85.5891L142.784 92.8828C140.14 96.8459 136.25 99.8144 131.73 101.319L130.369 101.776C128.833 102.29 127.435 103.151 126.286 104.292C125.136 105.433 124.265 106.824 123.74 108.357C123.215 109.89 123.051 111.523 123.259 113.129C123.467 114.736 124.043 116.272 124.942 117.62C128.455 122.905 126.551 130.065 120.877 132.903L95.8561 145.414L99.8834 155.498C100.696 157.546 100.738 159.819 100.001 161.896C99.2654 163.972 97.8012 165.711 95.8805 166.79C93.9598 167.869 91.713 168.215 89.5568 167.763C87.4006 167.312 85.4814 166.093 84.1552 164.334L77.6906 155.707C76.595 154.247 75.1444 153.091 73.4765 152.349C71.8087 151.607 69.9789 151.304 68.1609 151.468C66.3429 151.632 64.597 152.258 63.0889 153.287C61.5808 154.315 60.3606 155.712 59.5441 157.345L53.0128 170.409L47.1861 171.866M131.559 49.2922C116.507 48.029 101.389 50.777 87.7363 57.2395C74.0837 63.7021 62.3818 73.6592 53.8163 86.1017C45.2509 98.5443 40.1264 113.03 38.962 128.091C37.7977 143.153 40.6349 158.254 47.1861 171.866M131.559 49.2922C146.484 50.5372 160.823 55.6825 173.145 64.1972C185.467 72.7119 195.343 84.3081 201.787 97.8297C208.231 111.351 211.019 126.326 209.872 141.261C208.726 156.196 203.685 170.57 195.253 182.949L193.567 177.912C192.145 173.646 189.416 169.937 185.768 167.308C182.12 164.68 177.737 163.266 173.241 163.268H167.262L164.177 160.183C162.627 158.63 160.731 157.469 158.644 156.794C156.558 156.119 154.34 155.95 152.176 156.3C150.011 156.651 147.96 157.511 146.193 158.81C144.426 160.11 142.993 161.81 142.013 163.772L141.67 164.467C140.735 166.34 139.421 167.997 137.812 169.335C136.202 170.672 134.332 171.661 132.321 172.237L122.895 174.922C117.659 176.417 114.383 181.607 115.278 186.986L115.973 191.157C116.735 195.67 120.639 198.974 125.209 198.974C133.263 198.974 140.423 204.135 142.965 211.781L145.012 217.904M47.1861 171.866C55.7206 189.612 70.106 203.878 87.9225 212.263C105.739 220.647 125.899 222.639 145.012 217.904M145.012 217.904C165.481 212.825 183.362 200.385 195.243 182.959M160.121 106.137C160.121 114.669 156.379 122.324 150.448 127.561" stroke="white" stroke-width="3.5" stroke-linecap="round" stroke-linejoin="round"/>
<path d="M116.553 49.0015C113.414 49.0015 110.091 49.0015 106.368 49.0015C105.71 49.0015 105.229 48.378 105.373 47.7354C106.828 41.2284 107.042 31.4545 107.073 29.015C107.077 28.6624 107.255 28.3431 107.553 28.1551C109.835 26.7174 119.705 20.1307 123.479 11.5481C123.857 10.6879 125.174 10.6147 125.553 11.4746C129.259 19.8871 131.094 24.1674 140.402 28.1369C140.834 28.3211 141.088 28.7771 141.033 29.2434C140.523 33.5613 141.753 38.6283 143.539 47.8107C143.659 48.4271 143.186 49.0015 142.558 49.0015C138.476 49.0015 134.874 49.0015 131.471 49.0015M116.553 49.0015C119.915 46.0363 121.864 38.256 123.185 31.9599C123.419 30.8409 125.13 30.9094 125.311 32.0385C126.251 37.9157 128.119 46.119 131.471 49.0015M116.553 49.0015C121.709 49.0015 126.365 49.0015 131.471 49.0015" stroke="white" stroke-width="3.5" stroke-linecap="round"/>
<path d="M124.415 2V2.8064M124.415 2.8064L125.881 2.43384C126.984 2.15378 128.15 2.28383 129.167 2.80048L129.224 2.82951C130.22 3.33556 131.359 3.47081 132.444 3.21175L134.09 2.81822C133.89 4.6942 133.89 6.58668 134.092 8.46246L132.444 8.85598C131.36 9.11534 130.22 8.98028 129.224 8.47429L129.167 8.44526C128.15 7.9286 126.984 7.79855 125.881 8.07862L124.415 8.45117M124.415 2.8064V8.45117M124.415 11.6768V8.45117" stroke="white" stroke-width="2.5" stroke-linecap="round" stroke-linejoin="round"/>
<path d="M27.1138 137.498L24.9431 137.462L24.9616 136.357C24.9928 134.494 25.9313 133.578 27.7771 133.609L30.1817 133.649L30.1968 132.752L32.3155 132.788L32.3004 133.685L34.0682 133.714L34.0252 136.275L32.2575 136.245L32.2353 137.571L30.1166 137.536L30.1388 136.21L27.6951 136.169C27.4958 136.165 27.3521 136.206 27.264 136.292C27.1758 136.385 27.1298 136.541 27.1262 136.757L27.1138 137.498Z" fill="white"/>
<path d="M33.4861 155.488C33.6535 156.303 33.51 157.005 33.0558 157.593C32.6119 158.189 31.9229 158.582 30.9891 158.774L26.825 159.629L26.3125 157.133L30.1455 156.346C30.553 156.262 30.8496 156.091 31.0352 155.832C31.2294 155.571 31.2898 155.262 31.2166 154.905C31.1399 154.532 30.9609 154.263 30.6797 154.1C30.4069 153.935 30.0667 153.894 29.6592 153.977L25.8262 154.764L25.3137 152.269L34.7371 150.334L35.2496 152.83L31.9514 153.507C32.3193 153.661 32.6393 153.905 32.9112 154.239C33.1934 154.579 33.3851 154.995 33.4861 155.488Z" fill="white"/>
<path d="M37.6636 180.939C37.484 181.025 37.2987 181.1 37.1078 181.163L35.0182 176.816C34.6702 177.012 34.4476 177.24 34.3506 177.498C34.2651 177.76 34.288 178.028 34.4195 178.301C34.6035 178.684 34.9067 178.875 35.3293 178.874L36.5064 181.322C36.0045 181.439 35.5026 181.435 35.0006 181.311C34.5102 181.19 34.0564 180.957 33.6393 180.609C33.2222 180.261 32.8841 179.818 32.625 179.279C32.3134 178.631 32.1722 177.987 32.2015 177.348C32.2346 176.717 32.4355 176.134 32.8043 175.601C33.1769 175.076 33.7068 174.648 34.3942 174.318C35.0816 173.987 35.7428 173.843 36.3779 173.884C37.0208 173.921 37.5991 174.124 38.1128 174.492C38.6302 174.868 39.0466 175.385 39.362 176.041C39.6737 176.689 39.8169 177.327 39.7916 177.954C39.7664 178.582 39.5714 179.157 39.2066 179.678C38.8497 180.196 38.3354 180.616 37.6636 180.939ZM37.1113 178.32C37.3925 178.185 37.5661 177.986 37.6322 177.723C37.7062 177.457 37.6755 177.183 37.5403 176.902C37.4052 176.621 37.2163 176.428 36.9737 176.323C36.7389 176.215 36.46 176.205 36.1369 176.293L37.1113 178.32Z" fill="white"/>
<path d="M61.4953 207.992C62.1278 208.546 62.4443 209.198 62.4448 209.947C62.451 210.69 62.1401 211.42 61.512 212.137L58.7114 215.335L56.7945 213.656L59.3724 210.712C59.6465 210.4 59.7791 210.084 59.7703 209.765C59.7671 209.44 59.6287 209.157 59.3548 208.917C59.0679 208.666 58.7631 208.56 58.4402 208.6C58.123 208.633 57.8274 208.807 57.5533 209.12L54.9754 212.063L53.0585 210.385L57.8632 204.898L59.7801 206.577L59.095 207.359C59.4814 207.26 59.8838 207.261 60.302 207.362C60.7259 207.457 61.1237 207.667 61.4953 207.992Z" fill="white"/>
<path d="M75.3023 227.531C74.6545 227.199 74.1414 226.766 73.763 226.231C73.3923 225.7 73.1889 225.109 73.1528 224.457C73.1167 223.806 73.2725 223.141 73.6204 222.462C73.9643 221.791 74.4113 221.28 74.9613 220.929C75.5191 220.582 76.1216 220.403 76.769 220.394C77.4241 220.389 78.0756 220.553 78.7235 220.885C79.3713 221.217 79.8806 221.648 80.2513 222.179C80.6296 222.714 80.8369 223.307 80.873 223.959C80.9169 224.614 80.7668 225.277 80.4229 225.948C80.079 226.619 79.6262 227.132 79.0645 227.487C78.5145 227.838 77.9119 228.016 77.2568 228.022C76.6017 228.027 75.9502 227.863 75.3023 227.531ZM76.3104 225.564C76.6266 225.726 76.9481 225.745 77.275 225.621C77.6135 225.492 77.8954 225.208 78.1207 224.768C78.346 224.329 78.41 223.938 78.3127 223.596C78.223 223.258 78.0239 223.01 77.7154 222.852C77.4069 222.693 77.0893 222.677 76.7624 222.801C76.4356 222.926 76.1595 223.208 75.9342 223.648C75.7049 224.095 75.6312 224.486 75.7132 224.82C75.7951 225.154 75.9942 225.402 76.3104 225.564Z" fill="white"/>
<path d="M104.852 231.128C105.755 231.296 106.411 231.7 106.821 232.341C107.239 232.983 107.36 233.777 107.184 234.723L106.405 238.902L103.9 238.435L104.617 234.588C104.689 234.205 104.638 233.887 104.464 233.634C104.291 233.381 104.021 233.221 103.655 233.153C103.288 233.084 102.979 233.137 102.726 233.31C102.474 233.484 102.311 233.762 102.24 234.145L101.523 237.992L99.0185 237.525L99.7352 233.679C99.8066 233.295 99.7556 232.977 99.5823 232.725C99.4175 232.473 99.1519 232.314 98.7856 232.245C98.4107 232.176 98.0969 232.227 97.8442 232.401C97.5915 232.574 97.4295 232.852 97.3581 233.236L96.6414 237.083L94.1365 236.616L95.4722 229.446L97.9771 229.913L97.8009 230.859C98.0796 230.593 98.4102 230.404 98.7929 230.29C99.1857 230.169 99.6121 230.151 100.072 230.237C100.6 230.336 101.048 230.538 101.414 230.844C101.788 231.152 102.056 231.537 102.217 231.999C102.545 231.654 102.941 231.402 103.403 231.241C103.866 231.072 104.349 231.034 104.852 231.128Z" fill="white"/>
<path d="M127.148 237.458C127.068 236.708 127.133 236.039 127.341 235.451C127.557 234.861 127.882 234.391 128.316 234.04C128.758 233.689 129.268 233.482 129.845 233.421C130.345 233.368 130.787 233.422 131.17 233.582C131.552 233.742 131.861 233.98 132.095 234.295L131.988 233.286L134.522 233.019L135.288 240.271L132.754 240.539L132.648 239.531C132.485 239.888 132.229 240.185 131.879 240.422C131.538 240.659 131.122 240.803 130.631 240.855C130.053 240.916 129.512 240.821 129.006 240.569C128.508 240.316 128.092 239.925 127.757 239.394C127.43 238.853 127.227 238.208 127.148 237.458ZM132.37 236.906C132.321 236.441 132.153 236.088 131.867 235.848C131.588 235.608 131.264 235.507 130.893 235.546C130.514 235.586 130.214 235.753 129.992 236.046C129.769 236.331 129.683 236.711 129.733 237.185C129.782 237.65 129.946 238.008 130.225 238.257C130.504 238.498 130.832 238.598 131.212 238.558C131.582 238.519 131.878 238.353 132.1 238.059C132.33 237.764 132.421 237.38 132.37 236.906Z" fill="white"/>
<path d="M150.772 234.149C150.513 233.441 150.413 232.777 150.472 232.155C150.538 231.531 150.743 230.994 151.087 230.546C151.43 230.097 151.875 229.773 152.42 229.573C152.859 229.412 153.284 229.363 153.695 229.425C154.11 229.476 154.474 229.625 154.785 229.871L153.641 226.745L156.046 225.865L159.353 234.899L156.948 235.779L156.599 234.827C156.528 235.213 156.356 235.562 156.083 235.874C155.809 236.187 155.441 236.428 154.977 236.597C154.431 236.797 153.883 236.836 153.331 236.715C152.787 236.591 152.288 236.312 151.834 235.879C151.385 235.434 151.031 234.857 150.772 234.149ZM155.704 232.344C155.543 231.905 155.295 231.604 154.958 231.441C154.63 231.275 154.291 231.256 153.941 231.384C153.583 231.515 153.332 231.75 153.188 232.089C153.041 232.419 153.05 232.808 153.214 233.256C153.375 233.695 153.621 234.002 153.952 234.176C154.28 234.342 154.624 234.359 154.982 234.228C155.332 234.1 155.579 233.867 155.722 233.528C155.874 233.187 155.868 232.792 155.704 232.344Z" fill="white"/>
<path d="M186.919 210.447C187.531 209.871 188.211 209.619 188.956 209.692C189.696 209.757 190.393 210.138 191.045 210.833L193.956 213.93L192.1 215.675L189.42 212.824C189.135 212.521 188.834 212.358 188.516 212.336C188.191 212.307 187.897 212.418 187.632 212.667C187.354 212.928 187.219 213.221 187.227 213.546C187.229 213.865 187.373 214.176 187.658 214.479L190.338 217.331L188.481 219.076L183.487 213.761L185.343 212.016L186.056 212.774C185.994 212.38 186.034 211.98 186.176 211.573C186.311 211.16 186.559 210.785 186.919 210.447Z" fill="white"/>
<path d="M207.706 198.603C207.313 199.216 206.832 199.684 206.263 200.009C205.698 200.326 205.09 200.471 204.438 200.444C203.786 200.417 203.139 200.197 202.498 199.785C201.863 199.377 201.398 198.883 201.102 198.301C200.811 197.712 200.692 197.095 200.746 196.45C200.804 195.798 201.03 195.165 201.424 194.553C201.817 193.94 202.296 193.475 202.86 193.158C203.429 192.833 204.04 192.684 204.692 192.712C205.348 192.732 205.994 192.945 206.628 193.353C207.263 193.76 207.729 194.261 208.028 194.854C208.324 195.436 208.443 196.053 208.384 196.705C208.326 197.358 208.1 197.99 207.706 198.603ZM205.847 197.409C206.039 197.11 206.089 196.792 205.996 196.454C205.901 196.105 205.646 195.797 205.23 195.53C204.815 195.263 204.432 195.161 204.082 195.225C203.737 195.281 203.47 195.455 203.283 195.747C203.096 196.039 203.048 196.353 203.141 196.691C203.233 197.028 203.487 197.33 203.903 197.597C204.326 197.869 204.707 197.98 205.048 197.931C205.388 197.882 205.655 197.708 205.847 197.409Z" fill="white"/>
<path d="M219.467 176.874C219.234 177.564 218.881 178.136 218.408 178.589C217.938 179.034 217.383 179.322 216.744 179.454C216.105 179.586 215.424 179.531 214.702 179.287C213.987 179.046 213.416 178.679 212.987 178.187C212.561 177.687 212.296 177.117 212.192 176.478C212.09 175.831 212.155 175.163 212.388 174.473C212.621 173.783 212.972 173.216 213.442 172.771C213.915 172.317 214.471 172.025 215.11 171.893C215.752 171.752 216.43 171.803 217.145 172.044C217.859 172.285 218.433 172.657 218.867 173.16C219.296 173.652 219.561 174.222 219.663 174.869C219.765 175.516 219.699 176.184 219.467 176.874ZM217.373 176.168C217.486 175.831 217.457 175.51 217.286 175.206C217.109 174.89 216.786 174.653 216.318 174.495C215.85 174.337 215.454 174.332 215.13 174.479C214.809 174.617 214.593 174.851 214.482 175.179C214.371 175.508 214.402 175.824 214.573 176.129C214.745 176.434 215.065 176.665 215.533 176.823C216.009 176.984 216.406 176.999 216.725 176.869C217.043 176.738 217.259 176.505 217.373 176.168Z" fill="white"/>
<path d="M225.576 151.651L222.42 153.394L225.398 153.658L225.173 156.196L215.59 155.346L215.816 152.808L220.982 153.266L218.312 151.006L218.581 147.963L221.979 151.149L225.851 148.556L225.576 151.651Z" fill="white"/>
</svg>
