<svg width="164" height="199" viewBox="0 0 164 199" fill="none" xmlns="http://www.w3.org/2000/svg">
<path d="M50.3125 194.666C36.5605 194.666 21.9278 194.666 5.30658 194.666C4.64831 194.666 4.16496 194.055 4.32877 193.418C11.5195 165.43 12.0802 117.943 12.1218 112.282C12.1244 111.929 12.2754 111.636 12.5763 111.452C17.8807 108.219 68.3848 76.5543 81.216 35.5793C81.4969 34.6822 82.7688 34.6053 83.1513 35.464C100.916 75.3489 106.359 93.9492 148.68 111.414C149.114 111.593 149.38 112.053 149.307 112.516C146.374 131.038 151.855 152.339 159.769 193.466C159.888 194.082 159.416 194.666 158.789 194.666C140.812 194.666 125.161 194.666 110.438 194.666M50.3125 194.666C67.9249 179.113 75.6209 168.603 80.9027 148.265C81.1733 147.222 82.8368 147.201 83.1272 148.238C85.7812 157.715 93.5178 180.099 110.438 194.666M50.3125 194.666C71.0912 194.666 89.8591 194.666 110.438 194.666" stroke="white" stroke-width="7.5" stroke-linecap="round"/>
<path d="M82.5778 4V6.40741M82.5778 6.40741L86.9539 5.29519C90.2469 4.45909 93.7257 4.84733 96.7615 6.38975L96.9322 6.47642C99.9066 7.98715 103.308 8.39093 106.545 7.61753L111.459 6.44272C110.861 12.0432 110.864 17.693 111.467 23.293L106.547 24.4678C103.31 25.2421 99.9073 24.8388 96.9322 23.3283L96.7615 23.2416C93.7257 21.6992 90.2469 21.3109 86.9539 22.147L82.5778 23.2593M82.5778 6.40741V23.2593M82.5778 32.8889V23.2593" stroke="white" stroke-width="7.5" stroke-linecap="round" stroke-linejoin="round"/>
</svg>
